<svg width="39" height="39" viewBox="0 0 39 39" fill="none" xmlns="http://www.w3.org/2000/svg">
<path d="M17.583 38.7715H0V21.1885H17.583V38.7715ZM38.7734 38.7715H21.1904V21.1885H38.7734V38.7715ZM13.9766 27.833C12.6033 30.7348 10.5442 33.2481 8.00879 35.165H13.9766V27.833ZM24.7969 35.165H30.7617C28.2277 33.2489 26.17 30.7369 24.7969 27.8369V35.165ZM27.5176 24.7949C28.8764 28.606 31.6317 31.7518 35.167 33.6211V24.7949H27.5176ZM3.60645 33.6191C7.14044 31.7498 9.89423 28.6048 11.2529 24.7949H3.60645V33.6191ZM17.583 17.583H0V0H17.583V17.583ZM38.7734 17.583H21.1904V0H38.7734V17.583ZM3.60645 13.9766H11.2529C9.89428 10.1661 7.1409 7.01984 3.60645 5.15039V13.9766ZM35.167 5.15527C31.6368 7.0253 28.8868 10.1693 27.5293 13.9766H35.167V5.15527ZM24.7969 10.9551C26.17 8.04624 28.2324 5.52724 30.7725 3.60645H24.7969V10.9551ZM8.00977 3.60645C10.5444 5.52315 12.6035 8.03553 13.9766 10.9365V3.60645H8.00977Z" fill="#0A0E06"/>
</svg>
